<svg width="182" height="39" viewBox="0 0 182 39" fill="none" xmlns="http://www.w3.org/2000/svg">
<path fill-rule="evenodd" clip-rule="evenodd" d="M9.629 4.25059C5.438 6.69059 1.5565 9.09609 1.004 9.59559C0.059 10.4511 0 11.1246 0 21.0901C0 31.4341 0.0255001 31.6981 1.125 32.6871C2.8765 34.2626 11.1705 38.8496 12.2675 38.8496C12.808 38.8496 14.479 38.1996 15.981 37.4051L18.7115 35.9606L21.375 37.4636C23.2845 38.5416 24.4365 38.8871 25.444 38.6856C27.388 38.2971 36.413 32.9466 37.0115 31.8286C37.2825 31.3211 37.5 26.4786 37.5 20.9381C37.5 12.1541 37.3955 10.8396 36.625 9.94959C35.2 8.30309 20.917 0.26309 19 0.0280898C17.5105 -0.15441 16.116 0.47409 9.629 4.25059ZM24.7385 11.5801C27.2905 13.0816 29.518 14.6751 29.689 15.1211C30.167 16.3666 30.0575 26.8496 29.5665 26.8496C29.3285 26.8496 27.022 25.7291 24.4415 24.3591C21.861 22.9896 19.229 21.8646 18.5925 21.8591C17.956 21.8541 15.3175 22.9911 12.7295 24.3866C10.141 25.7816 7.7935 26.7811 7.512 26.6071C7.216 26.4241 7 24.1001 7 21.0981C7 16.4121 7.11 15.7851 8.125 14.6711C9.798 12.8351 17.0135 8.84959 18.664 8.84959C19.5025 8.84959 22.028 9.98459 24.7385 11.5801ZM59 18.5996V27.8496H61H63V19.1996C63 9.86859 62.863 9.34959 60.4 9.34959H59V18.5996ZM108.5 18.5681V27.8496H110.25H112V23.3271C112 19.1916 112.105 18.6991 113.228 17.5771C114.716 16.0881 115.68 16.0301 117 17.3496C117.859 18.2091 118 19.0161 118 23.0996V27.8496H120H122V22.8336C122 17.4131 121.294 14.8096 119.575 13.8896C118.128 13.1156 114.857 13.2236 113.72 14.0836C112.228 15.2126 112.063 15.0446 111.901 12.2246C111.754 9.66459 111.71 9.59559 110.125 9.44309L108.5 9.28609V18.5681ZM138.5 18.5996V27.8496H140.5H142.5V19.1996C142.5 9.86859 142.363 9.34959 139.9 9.34959H138.5V18.5996ZM154 12.1281C154 14.8991 153.997 14.9041 152.889 14.1281C150.426 12.4026 146.128 13.6281 144.987 16.3806C144.08 18.5706 144.166 23.2671 145.147 25.1571C146.999 28.7246 153.187 29.3921 156.229 26.3526L157.75 24.8331L157.913 17.8136C158.092 10.1166 157.868 9.34959 155.439 9.34959C154.026 9.34959 154 9.40059 154 12.1281ZM46.8815 14.1321C44.3745 15.4926 44 17.0111 44 25.8246C44 33.4021 44.0535 33.8496 44.959 33.8496C47.184 33.8496 47.5 33.3771 47.5 30.0461C47.5 26.6726 47.665 26.4391 49.2205 27.6156C51.4495 29.3016 55.608 27.9096 56.7895 25.0826C57.7005 22.9016 57.7005 18.7976 56.7895 16.6166C56.3945 15.6711 55.4065 14.5681 54.564 14.1326C52.6685 13.1526 48.6875 13.1521 46.8815 14.1321ZM66.517 14.7556C65.6825 15.5901 65 16.5151 65 16.8111C65 17.4901 68.8325 17.5246 69.25 16.8496C69.705 16.1131 72.288 16.2416 72.945 17.0331C73.7515 18.0051 72.7815 18.6466 69.8655 19.0686C66.5005 19.5556 64.7725 21.1586 64.7725 23.7941C64.7725 26.4846 66.146 27.8761 69.1345 28.2131C72.237 28.5626 74.8645 27.5961 76.037 25.6731C76.7745 24.4631 76.9965 23.1601 76.998 20.0301C77.0005 14.4616 76.383 13.7106 71.577 13.4391C68.179 13.2471 67.972 13.3011 66.517 14.7556ZM81.048 14.6361C78.3245 16.9276 77.8 22.7596 80.035 25.8986C82.19 28.9251 87.608 29.1896 90.109 26.3911C90.874 25.5346 91.5 24.5001 91.5 24.0916C91.5 23.0411 89.3665 23.1511 87.1965 24.3141C84.206 25.9171 82.5 24.6241 82.5 20.7541C82.5 17.1501 84.5465 15.3951 86.7795 17.0836C87.9895 17.9986 91.5045 18.1041 91.489 17.2246C91.4735 16.3486 89.9575 14.5726 88.658 13.9081C88.057 13.6011 86.443 13.3496 85.071 13.3496C83.121 13.3496 82.243 13.6301 81.048 14.6361ZM96.1905 14.3046C94.337 15.4346 93.5 17.5491 93.5 21.1001C93.5 24.0171 94.893 26.6361 97.015 27.7101C98.7015 28.5631 101.744 28.5076 103.517 27.5911C104.744 26.9561 106.5 24.6216 106.5 23.6246C106.5 22.9961 103.869 23.4176 102.197 24.3141C99.8555 25.5691 97.5 24.8041 97.5 22.7886C97.5 21.9386 97.9325 21.8496 102.062 21.8496H106.624L106.389 19.0156C106.19 16.6156 105.911 15.9646 104.569 14.7656C103.256 13.5921 102.535 13.3501 100.367 13.3516C98.6775 13.3526 97.197 13.6906 96.1905 14.3046ZM126.436 14.1036C123.917 15.4726 122.713 21.0206 124.181 24.4906C125.371 27.3016 126.715 28.0996 130.262 28.0996C132.916 28.0996 133.625 27.9061 134.71 26.8866C136.117 25.5651 136.993 23.0746 136.997 20.3826C137.001 18.0501 135.265 14.6306 133.719 13.9266C131.99 13.1386 128.035 13.2351 126.436 14.1036ZM162.21 14.2921C160.086 15.5881 159.34 17.6701 159.591 21.6096C159.773 24.4606 159.998 25.0786 161.353 26.4336C164.285 29.3661 169.964 28.8021 171.721 25.4046C172.932 23.0646 171.355 22.6381 167.939 24.3806C166.066 25.3366 165.831 25.3536 164.71 24.6191C164.044 24.1831 163.5 23.3816 163.5 22.8381C163.5 21.9266 163.851 21.8496 168 21.8496H172.5V19.8246C172.5 17.4736 171.477 15.2406 169.891 14.1301C168.324 13.0321 164.132 13.1206 162.21 14.2921ZM178.25 14.0511C175.219 15.3891 174.766 16.4176 174.581 22.4006L174.411 27.8496H176.206H178V23.7111C178 19.0531 178.744 17.3496 180.779 17.3496C181.87 17.3496 182 17.1371 182 15.3496C182 13.6031 181.857 13.3521 180.875 13.3691C180.256 13.3801 179.075 13.6866 178.25 14.0511ZM52.6285 17.2246C53.3835 18.0676 53.7335 19.9041 53.5755 22.1891C53.468 23.7411 52.1685 24.8496 50.456 24.8496C49.275 24.8496 48.824 24.5146 48.176 23.1551C47.258 21.2301 47.5565 18.3646 48.8055 17.1156C49.828 16.0931 51.662 16.1451 52.6285 17.2246ZM101.9 16.9496C102.23 17.2796 102.5 17.9546 102.5 18.4496C102.5 19.1961 102.074 19.3496 100 19.3496C97.4215 19.3496 97.104 19.0236 98.0175 17.3166C98.604 16.2206 100.95 15.9991 101.9 16.9496ZM132 17.3496C133.232 18.5821 133.355 22.1201 132.221 23.7381C131.223 25.1646 128.749 25.2496 128.018 23.8826C127.111 22.1886 127.386 18.4636 128.5 17.3496C129.05 16.7996 129.837 16.3496 130.25 16.3496C130.663 16.3496 131.45 16.7996 132 17.3496ZM153 17.3496C154.186 18.5351 154.39 22.6251 153.336 24.0666C152.38 25.3731 150.016 25.2286 148.854 23.7931C146.98 21.4791 148.669 16.3496 151.305 16.3496C151.688 16.3496 152.45 16.7996 153 17.3496ZM167.9 16.9496C168.23 17.2796 168.5 17.9546 168.5 18.4496C168.5 19.1961 168.074 19.3496 166 19.3496C163.926 19.3496 163.5 19.1961 163.5 18.4496C163.5 17.1761 164.484 16.3496 166 16.3496C166.715 16.3496 167.57 16.6196 167.9 16.9496ZM73.5 22.0996C73.5 23.8381 71.763 25.4476 70.0945 25.2551C68.972 25.1251 68.75 24.8546 68.75 23.6156C68.75 22.3181 69.0015 22.0561 70.75 21.5291C73.508 20.6981 73.5 20.6966 73.5 22.0996ZM24.0695 25.4606C26.7815 26.8966 28.9955 28.1901 28.99 28.3356C28.963 29.0291 18.826 34.3906 18.076 34.1081C16.1365 33.3776 8.504 28.5871 8.6385 28.1846C8.7945 27.7161 17.941 22.8706 18.6945 22.8576C18.939 22.8531 21.358 24.0246 24.0695 25.4606Z" fill="white"/>
</svg>
